<svg width="146" height="23" viewBox="0 0 146 23" fill="none" xmlns="http://www.w3.org/2000/svg">
<path d="M0.175 18V15.6H2.525V2.9H0.175V0.499999H7.175C9.50833 0.499999 11.2917 1.09167 12.525 2.275C13.775 3.45833 14.4 5.24167 14.4 7.625V10.9C14.4 13.2833 13.775 15.0667 12.525 16.25C11.2917 17.4167 9.50833 18 7.175 18H0.175ZM5.25 15.55H7.2C8.71667 15.55 9.84167 15.1667 10.575 14.4C11.3083 13.6333 11.675 12.4917 11.675 10.975V7.525C11.675 5.99167 11.3083 4.85 10.575 4.1C9.84167 3.35 8.71667 2.975 7.2 2.975H5.25V15.55ZM17.526 18V5.675H20.051V7.125H20.451C20.651 6.60833 20.9676 6.23333 21.401 6C21.851 5.75 22.401 5.625 23.051 5.625H24.526V7.95H22.951C22.1176 7.95 21.4343 8.18333 20.901 8.65C20.3676 9.1 20.101 9.8 20.101 10.75V18H17.526ZM30.6771 18.35C29.7938 18.35 29.0021 18.2 28.3021 17.9C27.6188 17.6 27.0688 17.1583 26.6521 16.575C26.2521 15.9917 26.0521 15.2833 26.0521 14.45C26.0521 13.6 26.2521 12.9 26.6521 12.35C27.0688 11.7833 27.6271 11.3583 28.3271 11.075C29.0438 10.7917 29.8521 10.65 30.7521 10.65H34.5021V9.85C34.5021 9.13333 34.2855 8.55833 33.8521 8.125C33.4188 7.69167 32.7521 7.475 31.8521 7.475C30.9688 7.475 30.2938 7.68333 29.8271 8.1C29.3605 8.51667 29.0521 9.05833 28.9021 9.725L26.5021 8.95C26.7021 8.28333 27.0188 7.68333 27.4521 7.15C27.9021 6.6 28.4938 6.15833 29.2271 5.825C29.9605 5.49167 30.8438 5.325 31.8771 5.325C33.4771 5.325 34.7355 5.73333 35.6521 6.55C36.5688 7.36667 37.0271 8.525 37.0271 10.025V15.1C37.0271 15.6 37.2605 15.85 37.7271 15.85H38.7771V18H36.8521C36.2688 18 35.7938 17.85 35.4271 17.55C35.0605 17.25 34.8771 16.8417 34.8771 16.325V16.25H34.5021C34.3688 16.5 34.1688 16.7917 33.9021 17.125C33.6355 17.4583 33.2438 17.75 32.7271 18C32.2105 18.2333 31.5271 18.35 30.6771 18.35ZM31.0521 16.225C32.0855 16.225 32.9188 15.9333 33.5521 15.35C34.1855 14.75 34.5021 13.9333 34.5021 12.9V12.65H30.9021C30.2188 12.65 29.6688 12.8 29.2521 13.1C28.8355 13.3833 28.6271 13.8083 28.6271 14.375C28.6271 14.9417 28.8438 15.3917 29.2771 15.725C29.7105 16.0583 30.3021 16.225 31.0521 16.225ZM40.3879 11.9V11.525C40.3879 10.225 40.6462 9.11667 41.1629 8.2C41.6962 7.28333 42.3962 6.575 43.2629 6.075C44.1296 5.575 45.0796 5.325 46.1129 5.325C47.3129 5.325 48.2296 5.55 48.8629 6C49.5129 6.45 49.9879 6.93333 50.2879 7.45H50.6879V5.675H53.1879V20.525C53.1879 21.275 52.9629 21.875 52.5129 22.325C52.0796 22.775 51.4796 23 50.7129 23H42.4129V20.75H49.9129C50.3962 20.75 50.6379 20.5 50.6379 20V16.075H50.2379C50.0546 16.375 49.7962 16.6833 49.4629 17C49.1296 17.3167 48.6879 17.575 48.1379 17.775C47.6046 17.975 46.9296 18.075 46.1129 18.075C45.0796 18.075 44.1212 17.8333 43.2379 17.35C42.3712 16.85 41.6796 16.1417 41.1629 15.225C40.6462 14.2917 40.3879 13.1833 40.3879 11.9ZM46.8129 15.825C47.9296 15.825 48.8462 15.475 49.5629 14.775C50.2962 14.0583 50.6629 13.075 50.6629 11.825V11.6C50.6629 10.3167 50.3046 9.33333 49.5879 8.65C48.8712 7.95 47.9462 7.6 46.8129 7.6C45.7129 7.6 44.7962 7.95 44.0629 8.65C43.3462 9.33333 42.9879 10.3167 42.9879 11.6V11.825C42.9879 13.075 43.3462 14.0583 44.0629 14.775C44.7962 15.475 45.7129 15.825 46.8129 15.825ZM62.7541 18.35C61.5208 18.35 60.4208 18.1 59.4541 17.6C58.5041 17.0833 57.7541 16.35 57.2041 15.4C56.6541 14.45 56.3791 13.325 56.3791 12.025V11.65C56.3791 10.35 56.6541 9.23333 57.2041 8.3C57.7541 7.35 58.5041 6.61667 59.4541 6.1C60.4208 5.58333 61.5208 5.325 62.7541 5.325C63.9874 5.325 65.0874 5.58333 66.0541 6.1C67.0208 6.61667 67.7791 7.35 68.3291 8.3C68.8791 9.23333 69.1541 10.35 69.1541 11.65V12.025C69.1541 13.325 68.8791 14.45 68.3291 15.4C67.7791 16.35 67.0208 17.0833 66.0541 17.6C65.0874 18.1 63.9874 18.35 62.7541 18.35ZM62.7541 16.05C63.8874 16.05 64.8041 15.6917 65.5041 14.975C66.2208 14.2417 66.5791 13.2333 66.5791 11.95V11.725C66.5791 10.4417 66.2291 9.44167 65.5291 8.725C64.8291 7.99167 63.9041 7.625 62.7541 7.625C61.6374 7.625 60.7208 7.99167 60.0041 8.725C59.3041 9.44167 58.9541 10.4417 58.9541 11.725V11.95C58.9541 13.2333 59.3041 14.2417 60.0041 14.975C60.7208 15.6917 61.6374 16.05 62.7541 16.05ZM72.36 18V5.675H74.885V7.525H75.285C75.5183 7.025 75.935 6.55833 76.535 6.125C77.135 5.69167 78.0266 5.475 79.21 5.475C80.1433 5.475 80.9683 5.68333 81.685 6.1C82.4183 6.51667 82.9933 7.10833 83.41 7.875C83.8266 8.625 84.035 9.53333 84.035 10.6V18H81.46V10.8C81.46 9.73333 81.1933 8.95 80.66 8.45C80.1266 7.93333 79.3933 7.675 78.46 7.675C77.3933 7.675 76.535 8.025 75.885 8.725C75.2516 9.425 74.935 10.4417 74.935 11.775V18H72.36ZM87.6658 18V0.499999H94.6158C95.6825 0.499999 96.6325 0.716666 97.4658 1.15C98.3158 1.56667 98.9742 2.16667 99.4408 2.95C99.9242 3.71667 100.166 4.64167 100.166 5.725V6.05C100.166 7.13333 99.9158 8.06667 99.4158 8.85C98.9325 9.63333 98.2742 10.2333 97.4408 10.65C96.6075 11.0667 95.6658 11.275 94.6158 11.275H90.3658V18H87.6658ZM90.3658 8.825H94.3408C95.2908 8.825 96.0492 8.575 96.6158 8.075C97.1825 7.575 97.4658 6.89167 97.4658 6.025V5.775C97.4658 4.89167 97.1825 4.2 96.6158 3.7C96.0492 3.2 95.2908 2.95 94.3408 2.95H90.3658V8.825ZM108.238 18.35C107.004 18.35 105.904 18.1 104.938 17.6C103.988 17.0833 103.238 16.35 102.688 15.4C102.138 14.45 101.863 13.325 101.863 12.025V11.65C101.863 10.35 102.138 9.23333 102.688 8.3C103.238 7.35 103.988 6.61667 104.938 6.1C105.904 5.58333 107.004 5.325 108.238 5.325C109.471 5.325 110.571 5.58333 111.538 6.1C112.504 6.61667 113.263 7.35 113.813 8.3C114.363 9.23333 114.638 10.35 114.638 11.65V12.025C114.638 13.325 114.363 14.45 113.813 15.4C113.263 16.35 112.504 17.0833 111.538 17.6C110.571 18.1 109.471 18.35 108.238 18.35ZM108.238 16.05C109.371 16.05 110.288 15.6917 110.988 14.975C111.704 14.2417 112.063 13.2333 112.063 11.95V11.725C112.063 10.4417 111.713 9.44167 111.013 8.725C110.313 7.99167 109.388 7.625 108.238 7.625C107.121 7.625 106.204 7.99167 105.488 8.725C104.788 9.44167 104.438 10.4417 104.438 11.725V11.95C104.438 13.2333 104.788 14.2417 105.488 14.975C106.204 15.6917 107.121 16.05 108.238 16.05ZM117.843 18V5.675H120.368V7.525H120.768C121.002 7.025 121.418 6.55833 122.018 6.125C122.618 5.69167 123.51 5.475 124.693 5.475C125.627 5.475 126.452 5.68333 127.168 6.1C127.902 6.51667 128.477 7.10833 128.893 7.875C129.31 8.625 129.518 9.53333 129.518 10.6V18H126.943V10.8C126.943 9.73333 126.677 8.95 126.143 8.45C125.61 7.93333 124.877 7.675 123.943 7.675C122.877 7.675 122.018 8.025 121.368 8.725C120.735 9.425 120.418 10.4417 120.418 11.775V18H117.843ZM132.624 11.9V11.525C132.624 10.225 132.883 9.11667 133.399 8.2C133.933 7.28333 134.633 6.575 135.499 6.075C136.366 5.575 137.316 5.325 138.349 5.325C139.549 5.325 140.466 5.55 141.099 6C141.749 6.45 142.224 6.93333 142.524 7.45H142.924V5.675H145.424V20.525C145.424 21.275 145.199 21.875 144.749 22.325C144.316 22.775 143.716 23 142.949 23H134.649V20.75H142.149C142.633 20.75 142.874 20.5 142.874 20V16.075H142.474C142.291 16.375 142.033 16.6833 141.699 17C141.366 17.3167 140.924 17.575 140.374 17.775C139.841 17.975 139.166 18.075 138.349 18.075C137.316 18.075 136.358 17.8333 135.474 17.35C134.608 16.85 133.916 16.1417 133.399 15.225C132.883 14.2917 132.624 13.1833 132.624 11.9ZM139.049 15.825C140.166 15.825 141.083 15.475 141.799 14.775C142.533 14.0583 142.899 13.075 142.899 11.825V11.6C142.899 10.3167 142.541 9.33333 141.824 8.65C141.108 7.95 140.183 7.6 139.049 7.6C137.949 7.6 137.033 7.95 136.299 8.65C135.583 9.33333 135.224 10.3167 135.224 11.6V11.825C135.224 13.075 135.583 14.0583 136.299 14.775C137.033 15.475 137.949 15.825 139.049 15.825Z" fill="#E5E5E5"/>
</svg>
