<svg width="19" height="19" viewBox="0 0 19 19" fill="none" xmlns="http://www.w3.org/2000/svg">
<path d="M14.9314 14.8368H3.87189C3.24732 14.8368 2.73926 14.3287 2.73926 13.7041V3.2674C2.73926 2.64283 3.24732 2.13477 3.87189 2.13477H11.5693V2.7574H3.87189C3.59066 2.7574 3.36189 2.98615 3.36189 3.2674V13.7045C3.36189 13.9857 3.59064 14.2145 3.87189 14.2145H14.9314C15.2126 14.2145 15.4414 13.9858 15.4414 13.7045L15.4413 6.62992H16.0639V13.7045C16.0637 14.3289 15.5557 14.837 14.9313 14.837L14.9314 14.8368Z" fill="#E5E5E5"/>
<path d="M14.015 13.0125H4.78853C4.67319 13.0125 4.56704 12.9486 4.51308 12.8465C4.45912 12.7444 4.46623 12.6209 4.53132 12.5254L6.24567 10.0173C6.30378 9.93236 6.39985 9.88152 6.50259 9.88152C6.60532 9.88152 6.70168 9.93236 6.7595 10.0173L7.51394 11.121L10.1559 7.2564C10.214 7.17145 10.3101 7.12061 10.4128 7.12061C10.5155 7.12061 10.6119 7.17145 10.6697 7.2564L14.2716 12.5256C14.3368 12.6209 14.3437 12.7446 14.2898 12.8467C14.2363 12.9489 14.1303 13.0128 14.0149 13.0128L14.015 13.0125ZM5.37868 12.3899H13.4252L10.4134 7.98408L7.77161 11.8487C7.7135 11.9337 7.61743 11.9845 7.51469 11.9845C7.41196 11.9845 7.3156 11.9337 7.25778 11.8487L6.50334 10.745L5.37868 12.3899Z" fill="#E5E5E5"/>
<path d="M6.27981 6.97465C5.57724 6.97465 5.00562 6.40302 5.00562 5.70046C5.00562 4.9979 5.57724 4.42627 6.27981 4.42627C6.98237 4.42627 7.554 4.9979 7.554 5.70046C7.554 6.40302 6.98237 6.97465 6.27981 6.97465V6.97465ZM6.27981 5.04906C5.9206 5.04906 5.62825 5.34126 5.62825 5.70061C5.62825 6.05982 5.92045 6.35217 6.27981 6.35217C6.63901 6.35217 6.93136 6.05997 6.93136 5.70061C6.93136 5.34126 6.63916 5.04906 6.27981 5.04906Z" fill="#E5E5E5"/>
<path d="M15.4412 0H16.0638V4.89198H15.4412V0Z" fill="#E5E5E5"/>
<path d="M13.3069 2.13477H18.1989V2.7574H13.3069V2.13477Z" fill="#E5E5E5"/>
<path d="M0.067706 18.1965C0.0641481 18.1985 0.0602937 18.1999 0.0564389 18.2006C0.0528809 18.2014 0.0488782 18.2018 0.044579 18.2018C0.0318295 18.2018 0.0217488 18.1985 0.014336 18.1917C0.00722008 18.1846 0.00366211 18.175 0.00366211 18.1627C0.00366211 18.1508 0.00722008 18.1413 0.014336 18.1342C0.0217484 18.1271 0.0318295 18.1235 0.044579 18.1235C0.0488782 18.1235 0.0528809 18.1241 0.0564389 18.1253C0.0602933 18.1262 0.0641477 18.1275 0.067706 18.1295V18.1449C0.0641481 18.1425 0.0605901 18.1407 0.0570321 18.1395C0.0534741 18.1384 0.0496198 18.1378 0.045765 18.1378C0.0389455 18.1378 0.0336087 18.1401 0.0297539 18.1449C0.0257512 18.1493 0.023824 18.1553 0.023824 18.1627C0.023824 18.1707 0.0257512 18.1769 0.0297539 18.1816C0.0336083 18.1861 0.0389455 18.1882 0.045765 18.1882C0.0496194 18.1882 0.0534738 18.1876 0.0570321 18.1864C0.0605905 18.1852 0.0641481 18.1834 0.067706 18.1811V18.1965Z" fill="#E5E5E5"/>
<path d="M0.125355 18.1592C0.123724 18.1584 0.122093 18.158 0.120611 18.158C0.11898 18.1577 0.117349 18.1574 0.115867 18.1574C0.111123 18.1574 0.107269 18.159 0.1046 18.1621C0.102228 18.165 0.101042 18.1691 0.101042 18.1746V18.2007H0.083252V18.1438H0.101042V18.1533C0.103414 18.1497 0.105934 18.1472 0.108751 18.1455C0.111864 18.1436 0.11557 18.1426 0.120018 18.1426H0.121797C0.122538 18.1426 0.123724 18.1429 0.125355 18.1432L0.125355 18.1592Z" fill="#E5E5E5"/>
<path d="M0.190857 18.1722V18.1776H0.148754C0.14905 18.1816 0.150533 18.1847 0.152905 18.1871C0.155573 18.1891 0.159428 18.19 0.164172 18.19C0.168026 18.19 0.172029 18.1894 0.176032 18.1882C0.179886 18.1871 0.184038 18.1856 0.188485 18.1835V18.1971C0.184037 18.1988 0.179738 18.2 0.175439 18.2007C0.170991 18.2014 0.166692 18.2019 0.162393 18.2019C0.152015 18.2019 0.144158 18.1994 0.138673 18.1942C0.133039 18.1891 0.130371 18.1817 0.130371 18.1722C0.130371 18.1632 0.13304 18.1561 0.138673 18.1509C0.144158 18.1454 0.151867 18.1426 0.1618 18.1426C0.170398 18.1426 0.177366 18.1454 0.182555 18.1509C0.18804 18.1561 0.190857 18.1632 0.190857 18.1722L0.190857 18.1722ZM0.172474 18.1663C0.172474 18.1627 0.171437 18.1601 0.169509 18.158C0.167434 18.1556 0.164765 18.1544 0.161207 18.1544C0.157946 18.1544 0.155277 18.1555 0.152906 18.1574C0.150534 18.1595 0.149051 18.1624 0.148754 18.1663L0.172474 18.1663Z" fill="#E5E5E5"/>
<path d="M0.230333 18.1752C0.226331 18.1752 0.223366 18.1758 0.221438 18.177C0.219363 18.1782 0.218473 18.1802 0.218473 18.1829C0.218473 18.1853 0.219215 18.1871 0.220845 18.1882C0.222328 18.1894 0.224551 18.19 0.227368 18.19C0.230926 18.19 0.233595 18.1888 0.23567 18.1865C0.238042 18.1841 0.239228 18.181 0.239228 18.177V18.1752L0.230333 18.1752ZM0.257611 18.1681V18.2007H0.239228V18.1924C0.236856 18.1959 0.234039 18.1986 0.230926 18.2001C0.228109 18.2013 0.224551 18.2019 0.220252 18.2019C0.214322 18.2019 0.209578 18.2004 0.20602 18.1971C0.202462 18.1936 0.200684 18.1891 0.200684 18.1835C0.200684 18.1768 0.202759 18.1721 0.207207 18.1693C0.211951 18.1661 0.219067 18.1645 0.228555 18.1645H0.239229V18.1627C0.239229 18.1601 0.238043 18.158 0.235671 18.1568C0.233595 18.1553 0.230334 18.1544 0.22559 18.1544C0.221587 18.1544 0.217881 18.1549 0.214323 18.1556C0.211061 18.1565 0.208096 18.1577 0.205428 18.1592V18.1455C0.209282 18.1444 0.213285 18.1436 0.217287 18.1432C0.221142 18.1429 0.224996 18.1426 0.228555 18.1426C0.238784 18.1426 0.246048 18.1447 0.250495 18.1485C0.255239 18.1525 0.257611 18.159 0.257611 18.1681V18.1681Z" fill="#E5E5E5"/>
<path d="M0.294368 18.1274V18.1435H0.313344V18.1565H0.294368V18.1808C0.294368 18.1832 0.294664 18.185 0.295554 18.1861C0.29674 18.187 0.298815 18.1873 0.302077 18.1873H0.311565V18.2004H0.296147C0.289031 18.2004 0.283842 18.199 0.280729 18.1962C0.277912 18.1931 0.276578 18.1879 0.276578 18.1808V18.1565H0.26709V18.1435H0.276578V18.1274L0.294368 18.1274Z" fill="#E5E5E5"/>
<path d="M0.380799 18.1722V18.1776H0.338695C0.338992 18.1816 0.340474 18.1847 0.342846 18.1871C0.345515 18.1891 0.349369 18.19 0.354113 18.19C0.357968 18.19 0.361971 18.1894 0.365973 18.1882C0.369828 18.1871 0.373979 18.1856 0.378426 18.1835V18.1971C0.373979 18.1988 0.369679 18.2 0.36538 18.2007C0.360933 18.2014 0.356633 18.2019 0.352334 18.2019C0.341957 18.2019 0.3341 18.1994 0.328614 18.1942C0.322981 18.1891 0.320312 18.1817 0.320312 18.1722C0.320312 18.1632 0.322981 18.1561 0.328614 18.1509C0.3341 18.1454 0.341809 18.1426 0.351741 18.1426C0.36034 18.1426 0.367308 18.1454 0.372497 18.1509C0.377982 18.1561 0.380798 18.1632 0.380798 18.1722L0.380799 18.1722ZM0.362416 18.1663C0.362416 18.1627 0.361378 18.1601 0.359451 18.158C0.357375 18.1556 0.354707 18.1544 0.351149 18.1544C0.347887 18.1544 0.345219 18.1555 0.342847 18.1574C0.340475 18.1595 0.338993 18.1624 0.338696 18.1663L0.362416 18.1663Z" fill="#E5E5E5"/>
<path d="M0.433321 18.1518V18.1216H0.451704V18.2004H0.433321V18.1921C0.430504 18.1957 0.427539 18.1984 0.424426 18.1999C0.421609 18.201 0.418199 18.2016 0.414345 18.2016C0.407525 18.2016 0.401892 18.199 0.397148 18.1933C0.392701 18.1878 0.390625 18.1807 0.390625 18.172C0.390625 18.1634 0.392701 18.1563 0.397148 18.1506C0.401892 18.1452 0.407526 18.1423 0.414345 18.1423C0.418199 18.1423 0.421609 18.1432 0.424426 18.1447C0.427539 18.1463 0.430504 18.1487 0.433321 18.1518V18.1518ZM0.421461 18.1886C0.425019 18.1886 0.427687 18.1873 0.429763 18.1844C0.432135 18.1818 0.433321 18.1776 0.433321 18.172C0.433321 18.1669 0.432135 18.1629 0.429763 18.1601C0.427687 18.157 0.425019 18.1554 0.421461 18.1554C0.417458 18.1554 0.414493 18.157 0.412566 18.1601C0.41049 18.1629 0.409601 18.1669 0.409601 18.172C0.409601 18.1776 0.41049 18.1818 0.412566 18.1844C0.414493 18.1873 0.417458 18.1886 0.421461 18.1886Z" fill="#E5E5E5"/>
<path d="M0.53537 18.1886C0.538928 18.1886 0.541596 18.1873 0.543671 18.1844C0.546043 18.1818 0.547229 18.1776 0.547229 18.172C0.547229 18.1669 0.546043 18.1629 0.543671 18.1601C0.541596 18.157 0.538928 18.1554 0.53537 18.1554C0.531367 18.1554 0.528254 18.157 0.525882 18.1601C0.523806 18.1629 0.522917 18.1669 0.522917 18.172C0.522917 18.1776 0.523806 18.1818 0.525882 18.1844C0.528254 18.1873 0.531367 18.1886 0.53537 18.1886ZM0.522917 18.1518C0.525585 18.1487 0.528402 18.1463 0.531219 18.1447C0.534332 18.1432 0.53789 18.1423 0.541893 18.1423C0.549009 18.1423 0.554642 18.1452 0.559089 18.1506C0.563389 18.1563 0.565613 18.1634 0.565613 18.172C0.565613 18.1807 0.563389 18.1878 0.559089 18.1933C0.554642 18.199 0.549009 18.2016 0.541893 18.2016C0.53789 18.2016 0.534332 18.201 0.531219 18.1999C0.528402 18.1984 0.525585 18.1957 0.522917 18.1921V18.2004H0.505127V18.1216H0.522917V18.1518Z" fill="#E5E5E5"/>
<path d="M0.571777 18.144H0.59016L0.604985 18.1826L0.618031 18.144H0.636414L0.612694 18.2063C0.610322 18.2125 0.607357 18.217 0.603799 18.2194C0.600538 18.222 0.596387 18.2235 0.591346 18.2235H0.581266V18.2116H0.586602C0.589716 18.2116 0.591939 18.2111 0.593126 18.2099C0.594608 18.209 0.595794 18.2072 0.596684 18.2045L0.597277 18.2033L0.571777 18.144Z" fill="#E5E5E5"/>
<path d="M0.683838 18.1245H0.703407V18.2004H0.683838V18.1245Z" fill="#E5E5E5"/>
<path d="M0.767585 18.1455V18.1604C0.765213 18.1589 0.762544 18.1577 0.759876 18.1568C0.757504 18.1561 0.754836 18.1556 0.752167 18.1556C0.747423 18.1556 0.74342 18.1573 0.740307 18.1604C0.737491 18.1632 0.736156 18.1672 0.736156 18.1722C0.736156 18.1779 0.73749 18.1822 0.740307 18.1853C0.74342 18.1881 0.747423 18.1894 0.752167 18.1894C0.75528 18.1894 0.758097 18.1891 0.760469 18.1882C0.763138 18.1871 0.76551 18.1857 0.767585 18.1841V18.1989C0.764768 18.2001 0.761804 18.2008 0.75869 18.2013C0.755873 18.2016 0.753056 18.2019 0.750388 18.2019C0.74001 18.2019 0.732005 18.1994 0.726075 18.1942C0.720442 18.1891 0.717773 18.1817 0.717773 18.1722C0.717773 18.1632 0.720442 18.1561 0.726075 18.1509C0.732005 18.1454 0.740011 18.1426 0.750388 18.1426C0.753057 18.1426 0.755873 18.143 0.75869 18.1438C0.761803 18.1442 0.764768 18.1448 0.767585 18.1455H0.767585Z" fill="#E5E5E5"/>
<path d="M0.810133 18.1556C0.80613 18.1556 0.803017 18.1571 0.800645 18.1598C0.798569 18.1626 0.79768 18.1667 0.79768 18.1722C0.79768 18.1779 0.798569 18.1822 0.800645 18.1853C0.803017 18.1881 0.80613 18.1894 0.810133 18.1894C0.813987 18.1894 0.816952 18.1881 0.819028 18.1853C0.8214 18.1822 0.822586 18.1779 0.822586 18.1722C0.822586 18.1667 0.8214 18.1626 0.819028 18.1598C0.816952 18.1571 0.813987 18.1556 0.810133 18.1556ZM0.810133 18.1426C0.819917 18.1426 0.827626 18.1454 0.83326 18.1509C0.838745 18.1561 0.841562 18.1632 0.841562 18.1722C0.841562 18.1817 0.838745 18.1891 0.83326 18.1942C0.827626 18.1994 0.819917 18.2019 0.810133 18.2019C0.8002 18.2019 0.792491 18.1994 0.787006 18.1942C0.781817 18.1891 0.779297 18.1817 0.779297 18.1722C0.779297 18.1632 0.781817 18.1561 0.787006 18.1509C0.792491 18.1454 0.8002 18.1426 0.810133 18.1426Z" fill="#E5E5E5"/>
<path d="M0.911664 18.1663V18.2007H0.893281V18.174C0.893281 18.1693 0.892985 18.1661 0.892688 18.1645C0.892688 18.1626 0.892392 18.161 0.892095 18.1598C0.891206 18.1586 0.890316 18.1578 0.88913 18.1574C0.887944 18.1567 0.886462 18.1562 0.884979 18.1562C0.880976 18.1562 0.877863 18.1578 0.875491 18.161C0.873416 18.1638 0.872526 18.1678 0.872526 18.1728V18.2007H0.854736V18.1438H0.872526V18.1521C0.875195 18.149 0.87816 18.1466 0.881421 18.145C0.884535 18.1435 0.887944 18.1426 0.891502 18.1426C0.898173 18.1426 0.903066 18.1447 0.906327 18.1485C0.909885 18.1525 0.911664 18.1584 0.911664 18.1663L0.911664 18.1663Z" fill="#E5E5E5"/>
<path d="M0.929199 18.1245H0.961814C0.971302 18.1245 0.978566 18.1267 0.983755 18.131C0.988795 18.1355 0.991464 18.1416 0.991464 18.1494C0.991464 18.1574 0.988795 18.1635 0.983755 18.1678C0.978566 18.1722 0.971302 18.1743 0.961814 18.1743H0.948768V18.2004H0.9292L0.929199 18.1245ZM0.948768 18.1387V18.1601H0.959442C0.963296 18.1601 0.966261 18.1594 0.968337 18.1577C0.970264 18.1558 0.971302 18.153 0.971302 18.1494C0.971302 18.1459 0.970264 18.1433 0.968337 18.1417C0.966261 18.1398 0.963297 18.1387 0.959442 18.1387L0.948768 18.1387Z" fill="#E5E5E5"/>
<path d="M1.03038 18.1752C1.02638 18.1752 1.02341 18.1758 1.02149 18.177C1.01941 18.1782 1.01852 18.1802 1.01852 18.1829C1.01852 18.1853 1.01926 18.1871 1.02089 18.1882C1.02238 18.1894 1.0246 18.19 1.02742 18.19C1.03098 18.19 1.03364 18.1888 1.03572 18.1865C1.03809 18.1841 1.03928 18.181 1.03928 18.177V18.1752L1.03038 18.1752ZM1.05766 18.1681V18.2007H1.03928V18.1924C1.0369 18.1959 1.03409 18.1986 1.03098 18.2001C1.02816 18.2013 1.0246 18.2019 1.0203 18.2019C1.01437 18.2019 1.00963 18.2004 1.00607 18.1971C1.00251 18.1936 1.00073 18.1891 1.00073 18.1835C1.00073 18.1768 1.00281 18.1721 1.00726 18.1693C1.012 18.1661 1.01912 18.1645 1.0286 18.1645H1.03928V18.1627C1.03928 18.1601 1.03809 18.158 1.03572 18.1568C1.03364 18.1553 1.03038 18.1544 1.02564 18.1544C1.02164 18.1544 1.01793 18.1549 1.01437 18.1556C1.01111 18.1565 1.00815 18.1577 1.00548 18.1592V18.1455C1.00933 18.1444 1.01333 18.1436 1.01734 18.1432C1.02119 18.1429 1.02505 18.1426 1.0286 18.1426C1.03883 18.1426 1.0461 18.1447 1.05054 18.1485C1.05529 18.1525 1.05766 18.159 1.05766 18.1681V18.1681Z" fill="#E5E5E5"/>
<path d="M1.07446 18.1435H1.09225V18.2005H1.07446V18.1435ZM1.07446 18.1216H1.09225V18.1364H1.07446V18.1216Z" fill="#E5E5E5"/>
<path d="M0.0444745 18.2256V18.2374H0.0343938C0.031577 18.2374 0.0296498 18.238 0.0284638 18.2392C0.0275743 18.2401 0.0272778 18.2416 0.0272778 18.244V18.2475H0.0426957V18.2606H0.0272778V18.3045H0.00948793V18.2606H0V18.2475H0.00948793V18.244C0.00948793 18.2377 0.0109704 18.2331 0.0142319 18.2303C0.0177899 18.2272 0.023127 18.2256 0.030243 18.2256L0.0444745 18.2256Z" fill="#E5E5E5"/>
<path d="M0.094349 18.2627C0.0927182 18.262 0.0910875 18.2615 0.089605 18.2615C0.0879743 18.2612 0.0863435 18.2609 0.084861 18.2609C0.0801171 18.2609 0.0762627 18.2625 0.0735939 18.2657C0.071222 18.2685 0.070036 18.2726 0.070036 18.2781V18.3042H0.0522461V18.2473H0.070036V18.2568C0.072408 18.2532 0.0749283 18.2507 0.0777447 18.2491C0.0808579 18.2471 0.0845643 18.2461 0.0890118 18.2461H0.0907908C0.0915321 18.2461 0.092718 18.2464 0.0943488 18.2467L0.094349 18.2627Z" fill="#E5E5E5"/>
<path d="M0.130201 18.2591C0.126198 18.2591 0.123085 18.2606 0.120713 18.2633C0.118638 18.2661 0.117748 18.2703 0.117748 18.2757C0.117748 18.2814 0.118638 18.2857 0.120713 18.2888C0.123085 18.2916 0.126198 18.2929 0.130201 18.2929C0.134055 18.2929 0.137021 18.2916 0.139096 18.2888C0.141468 18.2857 0.142654 18.2814 0.142654 18.2757C0.142654 18.2703 0.141468 18.2661 0.139096 18.2633C0.137021 18.2606 0.134056 18.2591 0.130201 18.2591ZM0.130201 18.2461C0.139985 18.2461 0.147694 18.2489 0.153328 18.2544C0.158813 18.2596 0.16163 18.2667 0.16163 18.2757C0.16163 18.2852 0.158813 18.2926 0.153328 18.2977C0.147694 18.3029 0.139986 18.3054 0.130201 18.3054C0.120268 18.3054 0.11256 18.3029 0.107074 18.2977C0.101885 18.2926 0.0993652 18.2852 0.0993652 18.2757C0.0993652 18.2667 0.101885 18.2596 0.107074 18.2544C0.112559 18.2489 0.120268 18.2461 0.130201 18.2461Z" fill="#E5E5E5"/>
<path d="M0.226989 18.2568C0.229361 18.2532 0.232029 18.2507 0.235291 18.2491C0.238404 18.2471 0.241962 18.2461 0.245965 18.2461C0.252191 18.2461 0.257232 18.2482 0.260789 18.252C0.264347 18.256 0.266126 18.262 0.266126 18.2698V18.3042H0.247743V18.2746V18.2734V18.271C0.247743 18.2671 0.24715 18.2643 0.245964 18.2627C0.244778 18.2608 0.242703 18.2597 0.240034 18.2597C0.236773 18.2597 0.234252 18.2612 0.232325 18.2639C0.23025 18.2667 0.22936 18.2709 0.22936 18.2763V18.3042H0.210977V18.2746C0.210977 18.2683 0.210384 18.2643 0.209198 18.2627C0.208309 18.2608 0.20653 18.2597 0.203861 18.2597C0.200304 18.2597 0.197487 18.2614 0.19556 18.2645C0.193484 18.2673 0.192595 18.2713 0.192595 18.2763V18.3042H0.174805V18.2473H0.192595V18.2556C0.194967 18.2525 0.197487 18.2501 0.200303 18.2485C0.203417 18.247 0.20653 18.2461 0.209791 18.2461C0.213646 18.2461 0.217056 18.2471 0.219872 18.2491C0.222985 18.2511 0.225357 18.2537 0.226988 18.2568L0.226989 18.2568Z" fill="#E5E5E5"/>
<path d="M0.338557 18.231V18.247H0.357533V18.26H0.338557V18.2843C0.338557 18.2867 0.338854 18.2885 0.339743 18.2897C0.340929 18.2906 0.343005 18.2908 0.346266 18.2908H0.355754V18.3039H0.340336C0.33322 18.3039 0.328032 18.3026 0.324918 18.2997C0.322102 18.2966 0.320767 18.2914 0.320767 18.2843V18.26H0.311279V18.247H0.320767V18.231L0.338557 18.231Z" fill="#E5E5E5"/>
<path d="M0.42558 18.2701V18.3045H0.407197V18.2784C0.407197 18.2733 0.406901 18.2699 0.406604 18.2683C0.406604 18.2664 0.406308 18.2647 0.406011 18.2635C0.405122 18.2624 0.404232 18.2616 0.403046 18.2612C0.40186 18.2604 0.400378 18.26 0.398895 18.26C0.394892 18.26 0.391779 18.2616 0.389407 18.2647C0.387332 18.2675 0.386442 18.2715 0.386442 18.2766V18.3045H0.368652V18.2256H0.386442V18.2558C0.389111 18.2527 0.392076 18.2503 0.395337 18.2487C0.398451 18.2472 0.40186 18.2463 0.405418 18.2463C0.412089 18.2463 0.416982 18.2484 0.420243 18.2523C0.423801 18.2563 0.42558 18.2622 0.42558 18.2701L0.42558 18.2701Z" fill="#E5E5E5"/>
<path d="M0.498963 18.2757V18.2811H0.456859C0.457156 18.2851 0.458638 18.2882 0.46101 18.2906C0.463679 18.2926 0.467534 18.2935 0.472278 18.2935C0.476132 18.2935 0.480135 18.2929 0.484137 18.2918C0.487992 18.2906 0.492143 18.2891 0.49659 18.287V18.3006C0.492143 18.3023 0.487843 18.3035 0.483544 18.3042C0.479097 18.3049 0.474798 18.3054 0.470498 18.3054C0.460121 18.3054 0.452264 18.3029 0.446779 18.2977C0.441145 18.2926 0.438477 18.2852 0.438477 18.2757C0.438477 18.2667 0.441145 18.2596 0.446779 18.2544C0.452264 18.2489 0.459973 18.2461 0.469906 18.2461C0.478504 18.2461 0.485472 18.2489 0.490661 18.2544C0.496146 18.2596 0.498963 18.2667 0.498963 18.2757L0.498963 18.2757ZM0.48058 18.2698C0.48058 18.2663 0.479542 18.2636 0.477615 18.2615C0.475539 18.2591 0.472871 18.258 0.469313 18.258C0.466051 18.258 0.463383 18.259 0.461011 18.2609C0.458639 18.263 0.457157 18.266 0.45686 18.2698L0.48058 18.2698Z" fill="#E5E5E5"/>
<path d="M0.549561 18.228H0.571502L0.598779 18.2802V18.228H0.617162V18.3039H0.595815L0.567944 18.2517V18.3039H0.549561L0.549561 18.228Z" fill="#E5E5E5"/>
<path d="M0.662428 18.2591C0.658425 18.2591 0.655312 18.2606 0.65294 18.2633C0.650864 18.2661 0.649975 18.2703 0.649975 18.2757C0.649975 18.2814 0.650864 18.2857 0.65294 18.2888C0.655312 18.2916 0.658425 18.2929 0.662428 18.2929C0.666282 18.2929 0.669247 18.2916 0.671323 18.2888C0.673695 18.2857 0.674881 18.2814 0.674881 18.2757C0.674881 18.2703 0.673695 18.2661 0.671323 18.2633C0.669247 18.2606 0.666282 18.2591 0.662428 18.2591ZM0.662428 18.2461C0.672212 18.2461 0.679921 18.2489 0.685555 18.2544C0.69104 18.2596 0.693857 18.2667 0.693857 18.2757C0.693857 18.2852 0.69104 18.2926 0.685555 18.2977C0.679921 18.3029 0.672212 18.3054 0.662428 18.3054C0.652495 18.3054 0.644786 18.3029 0.639301 18.2977C0.634112 18.2926 0.631592 18.2852 0.631592 18.2757C0.631592 18.2667 0.634112 18.2596 0.639301 18.2544C0.644786 18.2489 0.652495 18.2461 0.662428 18.2461Z" fill="#E5E5E5"/>
<path d="M0.706543 18.2825V18.2476H0.724333V18.2535V18.2653V18.2742V18.2843C0.724629 18.2864 0.725222 18.2877 0.726112 18.2885C0.726853 18.2897 0.727891 18.2907 0.729077 18.2914C0.730263 18.2919 0.731597 18.292 0.733228 18.292C0.736786 18.292 0.739454 18.2907 0.74153 18.2879C0.743902 18.2852 0.745088 18.2812 0.745088 18.276V18.2476H0.763471V18.3045H0.745088V18.2962C0.742271 18.2997 0.739306 18.3024 0.736193 18.3039C0.733376 18.3051 0.730263 18.3057 0.726705 18.3057C0.719885 18.3057 0.714845 18.3037 0.711287 18.2997C0.708025 18.2959 0.706543 18.2901 0.706543 18.2825V18.2825Z" fill="#E5E5E5"/>
<path d="M0.83769 18.2698V18.3042H0.819307V18.2775C0.819307 18.2728 0.81901 18.2697 0.818714 18.268C0.818714 18.2661 0.818417 18.2645 0.818121 18.2633C0.817231 18.2621 0.816342 18.2614 0.815156 18.2609C0.81397 18.2602 0.812487 18.2597 0.811005 18.2597C0.807002 18.2597 0.803889 18.2614 0.801517 18.2645C0.799441 18.2673 0.798552 18.2713 0.798552 18.2763V18.3042H0.780762V18.2473H0.798552V18.2556C0.80122 18.2525 0.804185 18.2501 0.807447 18.2485C0.81056 18.247 0.81397 18.2461 0.817527 18.2461C0.824199 18.2461 0.829091 18.2482 0.832352 18.252C0.83591 18.256 0.837689 18.262 0.837689 18.2698L0.83769 18.2698Z" fill="#E5E5E5"/>
<path d="M0.891357 18.228H0.923972C0.93346 18.228 0.940725 18.2303 0.945913 18.2346C0.950953 18.239 0.953622 18.2451 0.953622 18.2529C0.953622 18.2609 0.950953 18.267 0.945913 18.2713C0.940724 18.2758 0.93346 18.2778 0.923972 18.2778H0.910926V18.3039H0.891358L0.891357 18.228ZM0.910926 18.2423V18.2636H0.9216C0.925454 18.2636 0.92842 18.2629 0.930495 18.2612C0.932422 18.2593 0.93346 18.2565 0.93346 18.2529C0.93346 18.2494 0.932422 18.2469 0.930495 18.2452C0.92842 18.2433 0.925455 18.2423 0.9216 18.2423L0.910926 18.2423Z" fill="#E5E5E5"/>
<path d="M1.00914 18.2627C1.00751 18.262 1.00588 18.2615 1.0044 18.2615C1.00277 18.2612 1.00114 18.2609 0.999656 18.2609C0.994912 18.2609 0.991058 18.2625 0.988389 18.2657C0.986017 18.2685 0.984831 18.2726 0.984831 18.2781V18.3042H0.967041V18.2473H0.984831V18.2568C0.987203 18.2532 0.989723 18.2507 0.99254 18.2491C0.995653 18.2471 0.999359 18.2461 1.00381 18.2461H1.00559C1.00633 18.2461 1.00751 18.2464 1.00914 18.2467L1.00914 18.2627Z" fill="#E5E5E5"/>
<path d="M1.04524 18.2591C1.04124 18.2591 1.03812 18.2606 1.03575 18.2633C1.03368 18.2661 1.03279 18.2703 1.03279 18.2757C1.03279 18.2814 1.03368 18.2857 1.03575 18.2888C1.03812 18.2916 1.04124 18.2929 1.04524 18.2929C1.04909 18.2929 1.05206 18.2916 1.05414 18.2888C1.05651 18.2857 1.05769 18.2814 1.05769 18.2757C1.05769 18.2703 1.05651 18.2661 1.05414 18.2633C1.05206 18.2606 1.04909 18.2591 1.04524 18.2591ZM1.04524 18.2461C1.05502 18.2461 1.06273 18.2489 1.06837 18.2544C1.07385 18.2596 1.07667 18.2667 1.07667 18.2757C1.07667 18.2852 1.07385 18.2926 1.06837 18.2977C1.06273 18.3029 1.05502 18.3054 1.04524 18.3054C1.03531 18.3054 1.0276 18.3029 1.02211 18.2977C1.01692 18.2926 1.0144 18.2852 1.0144 18.2757C1.0144 18.2667 1.01692 18.2596 1.02211 18.2544C1.0276 18.2489 1.03531 18.2461 1.04524 18.2461Z" fill="#E5E5E5"/>
<path d="M1.08936 18.2475H1.10715V18.3033C1.10715 18.3111 1.10537 18.3171 1.10181 18.3211C1.09825 18.3249 1.09292 18.327 1.0858 18.327H1.0769V18.3151H1.07987C1.08343 18.3151 1.0858 18.3142 1.08699 18.3128C1.08847 18.3111 1.08936 18.308 1.08936 18.3033L1.08936 18.2475ZM1.08936 18.2256H1.10715V18.2404H1.08936V18.2256Z" fill="#E5E5E5"/>
<path d="M1.18158 18.2757V18.2811H1.13948C1.13977 18.2851 1.14126 18.2882 1.14363 18.2906C1.1463 18.2926 1.15015 18.2935 1.15489 18.2935C1.15875 18.2935 1.16275 18.2929 1.16675 18.2918C1.17061 18.2906 1.17476 18.2891 1.17921 18.287V18.3006C1.17476 18.3023 1.17046 18.3035 1.16616 18.3042C1.16171 18.3049 1.15741 18.3054 1.15312 18.3054C1.14274 18.3054 1.13488 18.3029 1.1294 18.2977C1.12376 18.2926 1.12109 18.2852 1.12109 18.2757C1.12109 18.2667 1.12376 18.2596 1.1294 18.2544C1.13488 18.2489 1.14259 18.2461 1.15252 18.2461C1.16112 18.2461 1.16809 18.2489 1.17328 18.2544C1.17876 18.2596 1.18158 18.2667 1.18158 18.2757L1.18158 18.2757ZM1.1632 18.2698C1.1632 18.2663 1.16216 18.2636 1.16023 18.2615C1.15816 18.2591 1.15549 18.258 1.15193 18.258C1.14867 18.258 1.146 18.259 1.14363 18.2609C1.14126 18.263 1.13977 18.266 1.13948 18.2698L1.1632 18.2698Z" fill="#E5E5E5"/>
<path d="M1.24097 18.2491V18.2639C1.2386 18.2624 1.23593 18.2612 1.23326 18.2603C1.23089 18.2596 1.22822 18.2591 1.22556 18.2591C1.22081 18.2591 1.21681 18.2608 1.2137 18.2639C1.21088 18.2667 1.20954 18.2707 1.20954 18.2757C1.20954 18.2814 1.21088 18.2857 1.2137 18.2888C1.21681 18.2916 1.22081 18.2929 1.22556 18.2929C1.22867 18.2929 1.23149 18.2926 1.23386 18.2918C1.23653 18.2906 1.2389 18.2892 1.24097 18.2876V18.3024C1.23816 18.3036 1.23519 18.3044 1.23208 18.3048C1.22926 18.3051 1.22645 18.3054 1.22378 18.3054C1.2134 18.3054 1.20539 18.3029 1.19946 18.2977C1.19383 18.2926 1.19116 18.2852 1.19116 18.2757C1.19116 18.2667 1.19383 18.2596 1.19946 18.2544C1.20539 18.2489 1.2134 18.2461 1.22378 18.2461C1.22645 18.2461 1.22926 18.2465 1.23208 18.2473C1.23519 18.2477 1.23816 18.2483 1.24097 18.2491H1.24097Z" fill="#E5E5E5"/>
<path d="M1.27655 18.231V18.247H1.29552V18.26H1.27655V18.2843C1.27655 18.2867 1.27684 18.2885 1.27773 18.2897C1.27892 18.2906 1.28099 18.2908 1.28425 18.2908H1.29374V18.3039H1.27832C1.27121 18.3039 1.26602 18.3026 1.26291 18.2997C1.26009 18.2966 1.25876 18.2914 1.25876 18.2843V18.26H1.24927V18.247H1.25876V18.231L1.27655 18.231Z" fill="#E5E5E5"/>
</svg>
