<svg width="12" height="12" viewBox="0 0 12 12" fill="none" xmlns="http://www.w3.org/2000/svg">
<path d="M5.9882 12C7.5632 12.0008 9.07461 11.3789 10.1928 10.2701L10.2223 10.248C10.2223 10.248 10.237 10.2278 10.2462 10.2186C11.3691 9.09601 12 7.57348 12 5.98591C12 4.39835 11.3691 2.87581 10.2462 1.75323C9.12325 0.630657 7.60021 1.18283e-08 6.01213 0C4.42405 -1.18283e-08 2.90101 0.630657 1.77807 1.75323L1.75414 1.78268C1.75414 1.78268 1.73941 1.80292 1.73021 1.81212C0.899451 2.65137 0.33576 3.71766 0.11016 4.87661C-0.115439 6.03557 0.00714656 7.23536 0.462472 8.32479C0.917797 9.41422 1.68549 10.3446 2.66882 10.9986C3.65215 11.6526 4.80712 12.001 5.9882 12ZM10.5021 6.01536C10.5028 6.95791 10.2065 7.87674 9.65527 8.64146L3.36124 2.34949C4.03539 1.86557 4.83004 1.57699 5.6577 1.51551C6.48536 1.45404 7.31394 1.62205 8.05223 2.00106C8.79051 2.38007 9.40987 2.95538 9.84211 3.66365C10.2744 4.37192 10.5027 5.18568 10.5021 6.01536ZM2.32114 3.38926L8.61516 9.68123C7.74637 10.3047 6.68425 10.5992 5.61835 10.5122C4.55245 10.4253 3.55213 9.96256 2.79592 9.2066C2.03971 8.45063 1.57681 7.45064 1.48985 6.38509C1.40288 5.31954 1.69751 4.25776 2.32114 3.38926Z" fill="#FF0000"/>
</svg>
