<svg width="14" height="14" viewBox="0 0 14 14" fill="none" xmlns="http://www.w3.org/2000/svg">
<path d="M10.5952 12.8265H3.99834C3.72803 12.8265 3.50928 12.6077 3.50928 12.3374V5.23896C3.50928 4.92334 3.25459 4.66865 2.93896 4.66865H2.91396C2.59834 4.66865 2.34365 4.92334 2.34365 5.23896V13.0015C2.34365 13.5483 2.7874 13.9905 3.33271 13.9905H11.2499C11.8015 13.9905 12.2499 13.5421 12.2499 12.9905V5.23896C12.2499 4.92334 11.9952 4.66865 11.6796 4.66865H11.6546C11.339 4.66865 11.0843 4.92334 11.0843 5.23896V12.3358C11.0843 12.6077 10.8655 12.8265 10.5952 12.8265ZM11.0843 2.33896V0.99834C11.0843 0.451465 10.6405 0.00927734 10.0952 0.00927734H4.49834C3.95146 0.00927734 3.50928 0.453027 3.50928 0.99834V2.33896H1.16553C0.849902 2.33896 0.595215 2.59365 0.595215 2.90928V2.93428C0.595215 3.2499 0.849902 3.50459 1.16553 3.50459H13.4296C13.7452 3.50459 13.9999 3.2499 13.9999 2.93428V2.90928C13.9999 2.59365 13.7452 2.33896 13.4296 2.33896H11.0843ZM9.91865 2.33896H4.6749V1.66396C4.6749 1.39365 4.89365 1.1749 5.16396 1.1749H9.42959C9.6999 1.1749 9.91865 1.39365 9.91865 1.66396V2.33896ZM5.25771 5.82178V11.0905C5.25771 11.4062 5.5124 11.6608 5.82803 11.6608H5.85303C6.16865 11.6608 6.42334 11.4062 6.42334 11.0905V5.82178C6.42334 5.50615 6.16865 5.25146 5.85303 5.25146H5.82803C5.5124 5.25146 5.25771 5.50615 5.25771 5.82178ZM8.17022 5.82178V11.0905C8.17022 11.4062 8.4249 11.6608 8.74053 11.6608H8.76553C9.08115 11.6608 9.33584 11.4062 9.33584 11.0905V5.82178C9.33584 5.50615 9.08115 5.25146 8.76553 5.25146H8.74053C8.4249 5.25146 8.17022 5.50615 8.17022 5.82178Z" fill="#FF0000"/>
</svg>
