<svg width="97" height="98" viewBox="0 0 97 98" fill="none" xmlns="http://www.w3.org/2000/svg">
<path fill-rule="evenodd" clip-rule="evenodd" d="M95.688 1.81235C94.5988 0.723103 92.9463 0.162825 91.2833 0.716222L91.2812 0.716927L2.25156 29.4041L2.22155 29.4191C1.63246 29.7137 1.082 30.2779 0.680901 30.9464C0.277224 31.6192 0 32.4384 0 33.2747C0 34.1109 0.277224 34.9301 0.680901 35.6029C1.082 36.2714 1.63246 36.8356 2.22155 37.1302L2.2314 37.1351L42.6294 54.8708L60.3528 95.2406C60.9464 96.9858 62.6873 97.5 64.2256 97.5C65.8886 97.5 67.5474 96.399 68.105 94.7262L68.1064 94.7221L96.7751 5.7506C97.0719 5.13124 97.0518 4.40312 96.8493 3.72801C96.6419 3.03669 96.2315 2.35586 95.688 1.81235ZM45.0772 46.4858L15.5363 33.8254L77.9411 13.4966L45.6111 45.8266C45.4942 45.9434 45.3945 46.0431 45.3172 46.1291C45.2372 46.2179 45.1606 46.314 45.1037 46.4277C45.099 46.4372 45.0945 46.4467 45.0901 46.4562C45.0856 46.466 45.0813 46.4759 45.0772 46.4858ZM51.5524 52.5048L83.9972 20.0601L63.6732 81.9771L50.9724 52.8125C51.0604 52.7498 51.1271 52.683 51.1777 52.6322L51.1871 52.6229C51.3052 52.5048 51.3162 52.5048 51.3686 52.5048H51.5524Z" fill="#E5E5E6"/>
</svg>
