<svg width="18" height="18" viewBox="0 0 18 18" fill="none" xmlns="http://www.w3.org/2000/svg">
<path fill-rule="evenodd" clip-rule="evenodd" d="M0.988699 9C0.9887 9.63207 1.50109 10.1445 2.13316 10.1445L7.85548 10.1445L7.85548 15.8668C7.85548 16.4988 8.36787 17.0112 8.99994 17.0112C9.63201 17.0112 10.1444 16.4988 10.1444 15.8668L10.1444 10.1445L15.8667 10.1445C16.4988 10.1445 17.0112 9.63208 17.0112 9.00001C17.0111 8.36794 16.4988 7.85555 15.8667 7.85555L10.1444 7.85554L10.1444 2.13323C10.1444 1.50116 9.632 0.988771 8.99993 0.988771C8.36786 0.988772 7.85547 1.50116 7.85547 2.13323L7.85548 7.85554L2.13316 7.85554C1.50109 7.85554 0.988699 8.36793 0.988699 9Z" fill="#006CFF"/>
</svg>
