<svg width="25" height="26" viewBox="0 0 25 26" fill="none" xmlns="http://www.w3.org/2000/svg">
<path d="M23.7319 20.3262H19.6199V24.4382C19.6199 24.8646 19.2758 25.2087 18.8494 25.2087C18.423 25.2087 18.0789 24.8646 18.0789 24.4382V20.3262H13.9644C13.538 20.3262 13.1938 19.9821 13.1938 19.5557C13.1938 19.1293 13.538 18.7852 13.9644 18.7852H18.0764V14.6707C18.0764 14.2443 18.4205 13.9001 18.8469 13.9001C19.2733 13.9001 19.6174 14.2443 19.6174 14.6707V18.7827H23.7294C24.1558 18.7827 24.4999 19.1268 24.4999 19.5532C24.5024 19.9821 24.1583 20.3262 23.7319 20.3262Z" fill="#006CFF"/>
<path d="M18.5849 6.97277C18.4627 3.66373 15.7272 0.923231 12.4156 0.796056C8.75251 0.656413 5.73771 3.58393 5.73771 7.21714C5.73771 9.5038 6.93715 11.5062 8.73505 12.6458C4.27645 14.0846 0.96741 18.2415 0.855197 23.1364C0.845222 23.5629 1.18186 23.9145 1.60827 23.9244C2.03717 23.9419 2.38628 23.5978 2.39626 23.1714C2.51844 17.9173 6.89974 13.6432 12.1638 13.6432C13.1937 13.6432 14.1836 13.8153 15.1187 14.122C15.1935 14.1469 15.2683 14.1594 15.3457 14.1594H15.3656C16.2334 14.1594 16.4478 12.9275 15.6224 12.6582C15.6125 12.6557 15.6 12.6508 15.59 12.6483C17.4553 11.4663 18.6746 9.36166 18.5849 6.97277ZM12.1638 12.0997C9.47067 12.0997 7.28127 9.90776 7.28127 7.21465C7.28127 4.52153 9.47316 2.33213 12.1638 2.33213C14.8569 2.33213 17.0488 4.52403 17.0488 7.21465C17.0488 9.90527 14.8569 12.0997 12.1638 12.0997Z" fill="#006CFF"/>
</svg>
