<svg width="17" height="18" viewBox="0 0 17 18" fill="none" xmlns="http://www.w3.org/2000/svg">
<path d="M13.5998 7.47594C13.4532 7.47594 13.3066 7.41726 13.1895 7.30011L10.1998 4.31043C9.9653 4.07592 9.9653 3.72428 10.1998 3.48975L13.0137 0.67588C13.2482 0.441373 13.5998 0.441373 13.8344 0.67588L16.8241 3.66556C17.0586 3.90006 17.0586 4.25171 16.8241 4.48624L14.0102 7.30011C13.8928 7.41746 13.7462 7.47594 13.5998 7.47594H13.5998ZM11.4308 3.90011L13.5998 6.06911L15.5928 4.07613L13.4238 1.90713L11.4308 3.90011Z" fill="#8A898E"/>
<path d="M0.586161 17.5C0.439569 17.5 0.292976 17.4413 0.17583 17.3242C0.0586782 17.207 0 17.031 0 16.8551L0.263744 13.6309C0.263744 13.4843 0.322422 13.3672 0.439574 13.2498L8.55849 5.13096C8.79299 4.89645 9.14464 4.89645 9.37917 5.13096L12.3394 8.12084C12.5739 8.35535 12.5739 8.70699 12.3394 8.94153L4.22053 17.0897C4.13262 17.1776 3.98602 17.2363 3.83944 17.2655L0.615215 17.5001H0.586183L0.586161 17.5ZM1.40685 13.9536L1.23102 16.2984L3.54641 16.1226L11.1084 8.56061L8.93943 6.39161L1.40685 13.9536Z" fill="#8A898E"/>
</svg>
