<svg width="14" height="15" viewBox="0 0 14 15" fill="none" xmlns="http://www.w3.org/2000/svg">
<path d="M11.4217 6.76127C11.7744 6.76333 12.0638 7.05116 12.0157 7.40056C11.9259 8.05352 11.7009 8.66571 11.3767 9.2175L10.4542 8.295C10.5763 8.01449 10.6685 7.71489 10.7224 7.39947C10.7822 7.04893 11.0661 6.75919 11.4217 6.76127ZM9.04419 6.885L4.55169 2.3925C4.55169 1.11991 5.45785 0 6.79419 0C8.03169 0 9.04419 1.0065 9.04419 2.25V6.885ZM13.0637 12.8229C13.3287 13.0876 13.328 13.5172 13.0622 13.781C12.7979 14.0432 12.3713 14.0424 12.1081 13.7792L9.44169 11.1128C8.85669 11.4502 8.21169 11.6903 7.52919 11.7878V13.4977C7.52919 13.912 7.1934 14.2477 6.77919 14.2477C6.36497 14.2477 6.02919 13.912 6.02919 13.4977V11.7802C3.77633 11.4437 1.87572 9.64154 1.57161 7.37611C1.52477 7.02716 1.81461 6.74025 2.16669 6.74025C2.51877 6.74025 2.79827 7.02781 2.85617 7.3751C3.17392 9.28084 4.90248 10.5645 6.77169 10.5645C7.37919 10.5645 7.96419 10.422 8.50494 10.1775L7.25994 8.9325L6.76494 8.985C5.51994 8.985 4.51494 7.9725 4.51494 6.735L4.50744 6.195L0.476349 2.16391C0.212933 1.90049 0.212097 1.47367 0.474477 1.20922C0.738195 0.94343 1.16767 0.942448 1.4326 1.20703L13.0637 12.8229Z" fill="#FF0000"/>
</svg>
