<svg width="23" height="20" viewBox="0 0 23 20" fill="none" xmlns="http://www.w3.org/2000/svg">
<path fill-rule="evenodd" clip-rule="evenodd" d="M11 8.25C13.2091 8.25 15 6.45914 15 4.25C15 2.04086 13.2091 0.25 11 0.25C8.79086 0.25 7 2.04086 7 4.25C7 6.45914 8.79086 8.25 11 8.25ZM5.5 1.25C3.567 1.25 2 2.817 2 4.75C2 6.683 3.567 8.25 5.5 8.25C6.05228 8.25 6.5 7.80228 6.5 7.25C6.5 6.69772 6.05228 6.25 5.5 6.25C4.67157 6.25 4 5.57843 4 4.75C4 3.92157 4.67157 3.25 5.5 3.25C6.05228 3.25 6.5 2.80228 6.5 2.25C6.5 1.69772 6.05228 1.25 5.5 1.25ZM4 16.25C4 12.384 7.13401 9.25 11 9.25C14.866 9.25 18 12.384 18 16.25C18 16.647 17.9669 17.0369 17.903 17.4171C17.6021 19.2081 13 19.75 11 19.75C9 19.75 4.41865 19.3253 4.09763 17.4208C4.03335 17.0394 4 16.6482 4 16.25ZM3.85402 11.0225C4.28304 10.6747 4.34889 10.0449 4.0011 9.61592C3.6533 9.1869 3.02357 9.12105 2.59455 9.46884C1.01345 10.7506 0 12.7118 0 14.909C0 15.3072 0.0333547 15.6984 0.0976325 16.0797C0.18943 16.6243 0.705335 16.9914 1.24994 16.8996C1.79454 16.8078 2.16161 16.2919 2.06981 15.7473C2.02397 15.4753 2 15.1953 2 14.909C2 13.3403 2.72123 11.9408 3.85402 11.0225ZM20.5 4.75C20.5 2.817 18.933 1.25 17 1.25C16.4477 1.25 16 1.69772 16 2.25C16 2.80228 16.4477 3.25 17 3.25C17.8284 3.25 18.5 3.92157 18.5 4.75C18.5 5.57843 17.8284 6.25 17 6.25C16.4477 6.25 16 6.69772 16 7.25C16 7.80228 16.4477 8.25 17 8.25C18.933 8.25 20.5 6.683 20.5 4.75ZM18.3703 11.0225C17.9413 10.6747 17.8755 10.0449 18.2233 9.61592C18.5711 9.1869 19.2008 9.12105 19.6298 9.46884C21.2109 10.7506 22.2244 12.7118 22.2244 14.909C22.2244 15.3072 22.191 15.6984 22.1267 16.0797C22.0349 16.6243 21.519 16.9914 20.9744 16.8996C20.4298 16.8078 20.0628 16.2919 20.1546 15.7473C20.2004 15.4753 20.2244 15.1953 20.2244 14.909C20.2244 13.3403 19.5031 11.9408 18.3703 11.0225Z" fill="#006CFF"/>
</svg>
